<svg width="62" height="57" viewBox="0 0 62 57" fill="none" xmlns="http://www.w3.org/2000/svg">
<g id="mingcute:voice-fill" clip-path="url(#clip0_63_31)">
<g id="Group">
<path id="Vector" d="M31.2404 6.47961C32.1891 6.47966 33.1037 6.80457 33.806 7.391C34.5083 7.97743 34.9478 8.78333 35.0389 9.65154L35.0567 9.98839V47.4153C35.0562 48.3164 34.6787 49.1828 34.0023 49.8349C33.326 50.487 32.4027 50.875 31.4238 50.9183C30.4449 50.9616 29.4854 50.6569 28.7441 50.0675C28.0028 49.4781 27.5365 48.649 27.442 47.7521L27.4242 47.4153V9.98839C27.4242 9.0578 27.8262 8.16533 28.5419 7.50731C29.2576 6.84929 30.2283 6.47961 31.2404 6.47961ZM21.0637 13.4972C22.0759 13.4972 23.0465 13.8668 23.7622 14.5249C24.4779 15.1829 24.88 16.0753 24.88 17.0059V40.3977C24.88 41.3283 24.4779 42.2208 23.7622 42.8788C23.0465 43.5368 22.0759 43.9065 21.0637 43.9065C20.0516 43.9065 19.0809 43.5368 18.3652 42.8788C17.6495 42.2208 17.2475 41.3283 17.2475 40.3977V17.0059C17.2475 16.0753 17.6495 15.1829 18.3652 14.5249C19.0809 13.8668 20.0516 13.4972 21.0637 13.4972ZM41.4171 13.4972C42.4292 13.4972 43.3999 13.8668 44.1156 14.5249C44.8313 15.1829 45.2333 16.0753 45.2333 17.0059V40.3977C45.2333 41.3283 44.8313 42.2208 44.1156 42.8788C43.3999 43.5368 42.4292 43.9065 41.4171 43.9065C40.405 43.9065 39.4343 43.5368 38.7186 42.8788C38.0029 42.2208 37.6008 41.3283 37.6008 40.3977V17.0059C37.6008 16.0753 38.0029 15.1829 38.7186 14.5249C39.4343 13.8668 40.405 13.4972 41.4171 13.4972ZM10.8871 20.5147C11.8992 20.5147 12.8699 20.8844 13.5856 21.5424C14.3012 22.2004 14.7033 23.0929 14.7033 24.0235V33.3802C14.7033 34.3108 14.3012 35.2033 13.5856 35.8613C12.8699 36.5193 11.8992 36.889 10.8871 36.889C9.87492 36.889 8.90424 36.5193 8.18856 35.8613C7.47287 35.2033 7.0708 34.3108 7.0708 33.3802V24.0235C7.0708 23.0929 7.47287 22.2004 8.18856 21.5424C8.90424 20.8844 9.87492 20.5147 10.8871 20.5147ZM51.5938 20.5147C52.5424 20.5147 53.4571 20.8397 54.1594 21.4261C54.8616 22.0125 55.3011 22.8184 55.3922 23.6866L55.41 24.0235V33.3802C55.4095 34.2813 55.032 35.1477 54.3557 35.7998C53.6794 36.452 52.7561 36.8399 51.7772 36.8832C50.7982 36.9265 49.8387 36.6219 49.0974 36.0324C48.3561 35.443 47.8899 34.6139 47.7953 33.717L47.7775 33.3802V24.0235C47.7775 23.0929 48.1796 22.2004 48.8953 21.5424C49.611 20.8844 50.5816 20.5147 51.5938 20.5147Z" fill="black"/>
</g>
</g>
<defs>
<clipPath id="clip0_63_31">
<rect width="61.0601" height="56.1404" fill="white" transform="translate(0.710449 0.631653)"/>
</clipPath>
</defs>
</svg>
